0
SECTION
2
HEADER
9
$ACADVER
1
AC1015
9
$INSBASE
10
0.0
20
0.0
30
0.0
9
$EXTMIN
10
-600.0
20
0.0
30
0.0
9
$EXTMAX
10
3200.0
20
3000.0
30
0.0
0
ENDSEC
0
SECTION
2
TABLES
0
TABLE
2
LAYER
70
7
0
LAYER
2
0
70
0
62
7
6
CONTINUOUS
0
LAYER
2
屏体轮廓
70
0
62
5
6
CONTINUOUS
0
LAYER
2
模组网格
70
0
62
8
6
CONTINUOUS
0
LAYER
2
主龙骨
70
0
62
3
6
CONTINUOUS
0
LAYER
2
找平托杆
70
0
62
4
6
CONTINUOUS
0
LAYER
2
标注
70
0
62
1
6
CONTINUOUS
0
LAYER
2
图框
70
0
62
7
6
CONTINUOUS
0
ENDTAB
0
ENDSEC
0
SECTION
2
BLOCKS
0
BLOCK
8
0
2
M10-4
70
0
10
0.0
20
0.0
30
0.0
0
CIRCLE
8
节点
62
6
10
0.0
20
0.0
30
0.0
40
40.0
0
LINE
8
节点
62
6
10
-80.0
20
0.0
30
0.0
11
80.0
21
0.0
31
0.0
0
LINE
8
节点
62
6
10
0.0
20
-80.0
30
0.0
11
0.0
21
80.0
31
0.0
0
ENDBLK
0
ENDSEC
0
SECTION
2
ENTITIES
0
LWPOLYLINE
8
屏体轮廓
62
5
90
4
70
1
10
0.000
20
600.000
10
2560.000
20
600.000
10
2560.000
20
2040.000
10
0.000
20
2040.000
0
LINE
8
模组网格
62
8
10
320.000
20
600.000
30
0.0
11
320.000
21
2040.000
31
0.0
0
LINE
8
模组网格
62
8
10
640.000
20
600.000
30
0.0
11
640.000
21
2040.000
31
0.0
0
LINE
8
模组网格
62
8
10
960.000
20
600.000
30
0.0
11
960.000
21
2040.000
31
0.0
0
LINE
8
模组网格
62
8
10
1280.000
20
600.000
30
0.0
11
1280.000
21
2040.000
31
0.0
0
LINE
8
模组网格
62
8
10
1600.000
20
600.000
30
0.0
11
1600.000
21
2040.000
31
0.0
0
LINE
8
模组网格
62
8
10
1920.000
20
600.000
30
0.0
11
1920.000
21
2040.000
31
0.0
0
LINE
8
模组网格
62
8
10
2240.000
20
600.000
30
0.0
11
2240.000
21
2040.000
31
0.0
0
LINE
8
模组网格
62
8
10
0.000
20
760.000
30
0.0
11
2560.000
21
760.000
31
0.0
0
LINE
8
模组网格
62
8
10
0.000
20
920.000
30
0.0
11
2560.000
21
920.000
31
0.0
0
LINE
8
模组网格
62
8
10
0.000
20
1080.000
30
0.0
11
2560.000
21
1080.000
31
0.0
0
LINE
8
模组网格
62
8
10
0.000
20
1240.000
30
0.0
11
2560.000
21
1240.000
31
0.0
0
LINE
8
模组网格
62
8
10
0.000
20
1400.000
30
0.0
11
2560.000
21
1400.000
31
0.0
0
LINE
8
模组网格
62
8
10
0.000
20
1560.000
30
0.0
11
2560.000
21
1560.000
31
0.0
0
LINE
8
模组网格
62
8
10
0.000
20
1720.000
30
0.0
11
2560.000
21
1720.000
31
0.0
0
LINE
8
模组网格
62
8
10
0.000
20
1880.000
30
0.0
11
2560.000
21
1880.000
31
0.0
0
LWPOLYLINE
8
主龙骨
62
3
90
4
70
1
10
-20.000
20
540.000
10
20.000
20
540.000
10
20.000
20
2100.000
10
-20.000
20
2100.000
0
LWPOLYLINE
8
主龙骨
62
3
90
4
70
1
10
2540.000
20
540.000
10
2580.000
20
540.000
10
2580.000
20
2100.000
10
2540.000
20
2100.000
0
LWPOLYLINE
8
主龙骨
62
3
90
4
70
1
10
-60.000
20
580.000
10
2620.000
20
580.000
10
2620.000
20
620.000
10
-60.000
20
620.000
0
LWPOLYLINE
8
主龙骨
62
3
90
4
70
1
10
-60.000
20
1300.000
10
2620.000
20
1300.000
10
2620.000
20
1340.000
10
-60.000
20
1340.000
0
LWPOLYLINE
8
主龙骨
62
3
90
4
70
1
10
-60.000
20
2020.000
10
2620.000
20
2020.000
10
2620.000
20
2060.000
10
-60.000
20
2060.000
0
LWPOLYLINE
8
找平托杆
62
4
90
4
70
1
10
-60.000
20
480.000
10
2620.000
20
480.000
10
2620.000
20
520.000
10
-60.000
20
520.000
0
CIRCLE
8
找平托杆
62
4
10
640.000
20
500.000
30
0.0
40
30.000
0
CIRCLE
8
找平托杆
62
4
10
1280.000
20
500.000
30
0.0
40
30.000
0
CIRCLE
8
找平托杆
62
4
10
1920.000
20
500.000
30
0.0
40
30.000
0
POINT
8
标识
62
7
10
-60.000
20
500.000
30
0.0
0
LINE
8
标注
62
1
10
0.000
20
2240.000
30
0.0
11
2560.000
21
2240.000
31
0.0
0
LINE
8
标注
62
1
10
0.000
20
2200.000
30
0.0
11
0.000
21
2280.000
31
0.0
0
LINE
8
标注
62
1
10
2560.000
20
2200.000
30
0.0
11
2560.000
21
2280.000
31
0.0
0
TEXT
8
标注
62
1
10
1190.000
20
2270.000
30
0.0
40
60.00
1
2560
50
0.00
0
LINE
8
标注
62
1
10
-200.000
20
600.000
30
0.0
11
-200.000
21
2040.000
31
0.0
0
LINE
8
标注
62
1
10
-240.000
20
600.000
30
0.0
11
-160.000
21
600.000
31
0.0
0
LINE
8
标注
62
1
10
-240.000
20
2040.000
30
0.0
11
-160.000
21
2040.000
31
0.0
0
TEXT
8
标注
62
1
10
-430.000
20
1320.000
30
0.0
40
60.00
1
1440
50
90.00
0
LINE
8
标注
62
2
10
320.000
20
2040.000
30
0.0
11
740.000
21
2380.000
31
0.0
0
LINE
8
标注
62
2
10
740.000
20
2380.000
30
0.0
11
1320.000
21
2380.000
31
0.0
0
TEXT
8
标注
62
2
10
780.000
20
2420.000
30
0.0
40
60.00
1
模组 320X160
50
0.00
0
INSERT
8
节点
62
6
2
M10-4
10
0.000
20
600.000
30
0.0
41
1.0000
42
1.0000
43
1.0000
50
0.00
0
INSERT
8
节点
62
6
2
M10-4
10
2560.000
20
600.000
30
0.0
41
1.0000
42
1.0000
43
1.0000
50
0.00
0
INSERT
8
节点
62
6
2
M10-4
10
0.000
20
2040.000
30
0.0
41
1.0000
42
1.0000
43
1.0000
50
0.00
0
INSERT
8
节点
62
6
2
M10-4
10
2560.000
20
2040.000
30
0.0
41
1.0000
42
1.0000
43
1.0000
50
0.00
0
INSERT
8
节点
62
6
2
M10-4
10
1280.000
20
600.000
30
0.0
41
1.0000
42
1.0000
43
1.0000
50
0.00
0
INSERT
8
节点
62
6
2
M10-4
10
1280.000
20
2040.000
30
0.0
41
1.0000
42
1.0000
43
1.0000
50
0.00
0
ARC
8
收边
62
6
10
1280.000
20
2820.000
30
0.0
40
340.000
50
205.00
51
335.00
0
TEXT
8
图框
62
7
10
0.000
20
180.000
30
0.0
40
110.00
1
LED显示屏钢结构正立面图
50
0.00
0
TEXT
8
图框
62
8
10
0.000
20
40.000
30
0.0
40
62.00
1
主体杆件 40X20X2 方管 / 立柱节点 150X150X8 型钢 / 单位 mm
50
0.00
0
ENDSEC
0
EOF
